<?xml version="1.0" encoding="UTF-8"?>
<svg id="Layer_2" data-name="Layer 2" xmlns="http://www.w3.org/2000/svg" viewBox="0 0 661.19 253.38">
  <defs>
    <style>
      .cls-1 {
        fill: #00dc96;
      }

      .cls-2 {
        fill: #000064;
      }
    </style>
  </defs>
  <g id="Layer_1-2" data-name="Layer 1">
    <g>
      <g>
        <rect class="cls-1" x="535.19" y="229.54" width="19.75" height="19.75" transform="translate(328.94 -315.3) rotate(45)"/>
        <rect class="cls-1" x="507.26" y="229.54" width="19.75" height="19.75" transform="translate(320.76 -295.55) rotate(45)"/>
        <rect class="cls-1" x="586.48" y="4.09" width="19.75" height="19.75" transform="translate(164.79 425.77) rotate(-45)"/>
        <rect class="cls-1" x="586.48" y="32.02" width="19.75" height="19.75" transform="translate(145.04 433.95) rotate(-45)"/>
        <rect class="cls-1" x="483.72" y="4.09" width="19.75" height="19.75" transform="translate(134.7 353.11) rotate(-45)"/>
        <rect class="cls-1" x="511.65" y="4.09" width="19.75" height="19.75" transform="translate(142.88 372.86) rotate(-45)"/>
        <path class="cls-2" d="m620.74,96.14l-6.67,6.68,26.49,26.49h0l-62.44,62.44h-94.03l-62.44-62.44h0l12.52-12.52,46.76,46.76h0s6.67,6.68,6.67,6.68l21.75-21.75,10.98,10.99,13.96,13.96,6.68-6.68,15.08-15.08,7.79,7.79,13.96,13.96,6.68-6.68,21.75-21.75v-69.37l-9.87-9.87-9.87,9.87h0v61.19l-15.97,15.97-7.79-7.79V9.87l-9.87-9.87-9.87,9.87h0v126.93l-15.97,15.97-7.79-7.79h0V41.72l-11.66-11.66-11.66,11.66h0l-40.45,40.45,6.67,6.68h0s18.63,18.63,18.63,18.63l6.67,6.68,12.05-12.05v42.87l-4.59,4.59-53.43-53.43-40.45,40.45,74.9,74.9h110.4l74.9-74.9-40.45-40.45Zm-144.66-21.25l23.39-23.39v37.27l-4.76,4.76-18.63-18.63Z"/>
      </g>
      <g>
        <g>
          <path d="m17.17,187.6v-51.08H0v-7.19h42.29v7.19h-17v51.08h-8.12Z"/>
          <path d="m57.17,187.6l15.65-58.27h16.15l15.65,58.27h-8.2l-3.81-13.95h-23.51l-3.81,13.95h-8.12Zm13.53-20.89h20.38l-8.12-30.62h-4.14l-8.12,30.62Z"/>
          <path d="m129.82,187.6v-58.27h8.12v51.17h24.78v7.1h-32.9Z"/>
          <path d="m182.34,187.6l15.65-58.27h16.15l15.65,58.27h-8.2l-3.81-13.95h-23.51l-3.81,13.95h-8.12Zm13.53-20.89h20.38l-8.12-30.62h-4.14l-8.12,30.62Z"/>
          <path d="m289.32,200.03l-7.53-12.26c-.85.22-1.83.39-2.96.51-1.13.11-2.31.17-3.55.17-6.09,0-10.84-1.1-14.25-3.3-3.41-2.2-5.81-5.51-7.19-9.94-1.38-4.43-2.07-9.91-2.07-16.45s.69-12.05,2.07-16.53c1.38-4.48,3.79-7.91,7.23-10.28,3.44-2.37,8.17-3.55,14.21-3.55s10.84,1.17,14.25,3.51c3.41,2.34,5.82,5.77,7.23,10.28,1.41,4.51,2.11,10.04,2.11,16.58s-.69,12.24-2.07,16.58c-1.38,4.34-3.85,7.61-7.4,9.81l7.1,11.5-7.19,3.38Zm-14.04-18.61c4.23,0,7.43-.82,9.6-2.45,2.17-1.63,3.65-4.13,4.44-7.48.79-3.35,1.18-7.6,1.18-12.73s-.41-9.26-1.23-12.73c-.82-3.47-2.31-6.1-4.48-7.91-2.17-1.8-5.34-2.71-9.52-2.71s-7.27.9-9.47,2.71c-2.2,1.81-3.71,4.43-4.53,7.87-.82,3.44-1.23,7.7-1.23,12.77s.39,9.22,1.18,12.6c.79,3.38,2.28,5.91,4.48,7.57,2.2,1.66,5.38,2.5,9.56,2.5Z"/>
          <path d="m336.85,187.6v-23.85l-18.35-34.42h8.96l13.36,26.05,13.45-26.05h8.97l-18.27,34.42v23.85h-8.12Z"/>
        </g>
        <g>
          <rect x="20.33" y="96.14" width="7.95" height="8.2" transform="translate(-68.11 54.43) rotate(-50)"/>
          <rect x="35.94" y="96.14" width="7.95" height="8.2" transform="translate(-62.53 66.39) rotate(-50)"/>
          <rect x="334.77" y="30.85" width="7.95" height="8.2" transform="translate(94.23 271.98) rotate(-50)"/>
          <rect x="350.39" y="30.85" width="7.95" height="8.2" transform="translate(99.81 283.94) rotate(-50)"/>
          <rect x="160.72" y="30.85" width="7.95" height="8.2" transform="translate(32.05 138.65) rotate(-50)"/>
          <rect x="176.33" y="30.85" width="7.95" height="8.2" transform="translate(37.63 150.61) rotate(-50)"/>
          <path d="m350.47,81.26h-75.95V27.89h-7.86v53.37h-75.95v-35.35h-17.93c-4.91,0-8.77.78-11.59,2.33-2.82,1.55-4.83,3.89-6.05,7.02-1.21,3.13-1.82,7.09-1.82,11.88s.61,8.71,1.82,11.59c.39.94.88,1.78,1.45,2.54h-79.21v-35.35h-17.93c-4.91,0-8.77.78-11.59,2.33-2.82,1.55-4.83,3.89-6.05,7.02-1.21,3.13-1.82,7.09-1.82,11.88v14.12h-16.07c-3.16,0-5.95-.54-8.37-1.61-2.43-1.07-4.31-2.54-5.67-4.4-1.35-1.86-2.03-4-2.03-6.43,0-1.24.18-3.37.55-6.39.37-3.02.86-6.39,1.48-10.11l-7.78-1.02c-.39,2.43-.75,4.78-1.06,7.06-.31,2.28-.56,4.34-.76,6.17C.1,66.39,0,67.87,0,69c0,2.76.6,5.33,1.82,7.7,1.21,2.37,2.9,4.41,5.07,6.13,2.17,1.72,4.71,3.06,7.61,4.02,2.9.96,6.05,1.44,9.43,1.44h23.93v-21.14c0-3.89.32-6.85.97-8.88.65-2.03,1.82-3.41,3.51-4.14,1.69-.73,4.06-1.1,7.1-1.1h10.06v35.27h288.82v-42.37h-7.86v35.35Zm-184.79-1.1c-1.69-.73-2.86-2.11-3.51-4.14-.65-2.03-.97-4.99-.97-8.88s.32-6.85.97-8.88c.65-2.03,1.82-3.41,3.51-4.14,1.69-.73,4.06-1.1,7.1-1.1h10.06v28.25h-10.06c-3.05,0-5.41-.37-7.1-1.1Z"/>
        </g>
      </g>
    </g>
  </g>
</svg>